<svg width="19" height="18" viewBox="0 0 19 18" fill="none" xmlns="http://www.w3.org/2000/svg">
<path d="M3.95834 7.44225C3.95834 11.0813 7.31818 14.0903 8.80572 15.2438C9.01947 15.4088 9.12634 15.4928 9.28547 15.5348C9.40897 15.5678 9.59105 15.5678 9.71455 15.5348C9.87368 15.4928 9.98055 15.4095 10.1943 15.2438C11.6818 14.0903 15.0417 11.0813 15.0417 7.44225C15.041 6.75903 14.8972 6.08273 14.6186 5.45254C14.34 4.82235 13.9322 4.2508 13.4188 3.771C12.3746 2.79528 10.9666 2.24878 9.50001 2.25C8.0334 2.24878 6.62539 2.79528 5.58126 3.771C5.0678 4.25077 4.65995 4.82232 4.38137 5.45251C4.10278 6.08271 3.95899 6.75902 3.95834 7.44225Z" stroke="black" stroke-width="2" stroke-linecap="round" stroke-linejoin="round"/>
<path d="M7.91669 6.75C7.91669 7.14782 8.0835 7.52936 8.38043 7.81066C8.67737 8.09196 9.08009 8.25 9.50002 8.25C9.91995 8.25 10.3227 8.09196 10.6196 7.81066C10.9165 7.52936 11.0834 7.14782 11.0834 6.75C11.0834 6.35218 10.9165 5.97064 10.6196 5.68934C10.3227 5.40804 9.91995 5.25 9.50002 5.25C9.08009 5.25 8.67737 5.40804 8.38043 5.68934C8.0835 5.97064 7.91669 6.35218 7.91669 6.75Z" stroke="black" stroke-width="2" stroke-linecap="round" stroke-linejoin="round"/>
</svg>
